<?xml version="1.0" encoding="UTF-8" standalone="no"?>
<svg
   height="16"
   width="12"
   viewBox="0 0 384 512"
   version="1.1"
   id="svg1"
   xmlns="http://www.w3.org/2000/svg"
   xmlns:svg="http://www.w3.org/2000/svg">
  <defs
     id="defs1" />
  <!--!Font Awesome Free 6.5.1 by @fontawesome - https://fontawesome.com License - https://fontawesome.com/license/free Copyright 2024 Fonticons, Inc.-->
  <path
     opacity="1"
     fill="#1e3050"
     d="m 342.6,150.6 c 12.5,-12.5 12.5,-32.8 0,-45.3 -12.5,-12.5 -32.8,-12.5 -45.3,0 L 192,210.7 86.6,105.4 c -12.5,-12.5 -32.8,-12.5 -45.3,0 -12.5,12.5 -12.5,32.8 0,45.3 L 146.7,256 41.4,361.4 c -12.5,12.5 -12.5,32.8 0,45.3 12.5,12.5 32.8,12.5 45.3,0 L 192,301.3 297.4,406.6 c 12.5,12.5 32.8,12.5 45.3,0 12.5,-12.5 12.5,-32.8 0,-45.3 L 237.3,256 Z"
     id="path1"
     style="display:inline;fill:#ffffff;fill-opacity:1" />
  <path
     style="display:inline;fill:#ffffff;stroke-width:2.23948"
     d="M 48.148714,409.8519 C 35.660947,401.63357 30.705415,386.41936 35.96904,372.45853 37.276342,368.99114 63.209155,341.20234 93.597507,310.70561 L 148.84906,255.25704 92.277578,198.65291 C 43.528442,149.87564 35.522154,140.91528 34.375821,133.85127 c -0.731651,-4.50864 -0.703706,-10.69396 0.0621,-13.74518 2.222214,-8.854 12.189107,-19.0082 21.062429,-21.45824 16.480512,-4.55049 19.872617,-2.100647 78.85102,56.94773 30.1675,30.2033 55.83935,54.91508 57.04856,54.91508 1.20922,0 26.91491,-24.59893 57.12376,-54.66429 62.68318,-62.38542 65.32538,-64.128789 83.70633,-55.23072 7.7328,3.74338 11.30598,7.31655 15.04934,15.04934 8.89808,18.38096 7.15472,21.02317 -55.23071,83.70634 -30.06535,30.20886 -54.66429,55.8812 -54.66429,57.04964 0,1.16845 25.11744,27.34419 55.81655,58.16831 47.60107,47.79494 56.0404,57.2656 57.33755,64.34448 4.04474,22.0729 -22.57776,42.8249 -42.19799,32.89296 -2.69036,-1.36192 -29.83374,-27.30422 -60.3186,-57.64966 l -55.42701,-55.17354 -55.42701,55.17354 C 106.683,384.5225 79.539626,410.46483 76.849248,411.82672 69.250208,415.67344 55.56352,414.73168 48.148714,409.852 Z"
     id="path2" />
</svg>
