<?xml version="1.0" encoding="UTF-8" standalone="no"?>
<svg
   height="16"
   width="20"
   viewBox="0 0 640 512"
   version="1.1"
   id="svg1"
   sodipodi:docname="hibernate.svg"
   inkscape:export-filename="hibernate-white.png"
   inkscape:export-xdpi="96"
   inkscape:export-ydpi="96"
   xmlns:inkscape="http://www.inkscape.org/namespaces/inkscape"
   xmlns:sodipodi="http://sodipodi.sourceforge.net/DTD/sodipodi-0.dtd"
   xmlns="http://www.w3.org/2000/svg"
   xmlns:svg="http://www.w3.org/2000/svg">
  <defs
     id="defs1" />
  <sodipodi:namedview
     id="namedview1"
     pagecolor="#ffffff"
     bordercolor="#000000"
     borderopacity="0.25"
     inkscape:showpageshadow="2"
     inkscape:pageopacity="0.0"
     inkscape:pagecheckerboard="0"
     inkscape:deskcolor="#d1d1d1" />
  <!--!Font Awesome Free 6.5.1 by @fontawesome - https://fontawesome.com License - https://fontawesome.com/license/free Copyright 2024 Fonticons, Inc.-->
  <path
     opacity="1"
     fill="#1E3050"
     d="m 495.8,0 c 5.5,0 10.9,0.2 16.3,0.7 7,0.6 12.8,5.7 14.3,12.5 1.5,6.8 -1.6,13.9 -7.7,17.3 -44.4,25.2 -74.4,73 -74.4,127.8 0,81 65.5,146.6 146.2,146.6 8.6,0 17,-0.7 25.1,-2.1 6.9,-1.2 13.8,2.2 17,8.5 3.2,6.3 1.9,13.8 -3.1,18.7 -34.5,33.6 -81.7,54.4 -133.6,54.4 -9.3,0 -18.4,-0.7 -27.4,-1.9 -11.2,-22.6 -29.8,-40.9 -52.6,-51.7 -2.7,-58.5 -50.3,-105.3 -109.2,-106.7 -1.7,-10.4 -2.6,-21 -2.6,-31.8 C 304,86.1 389.8,0 495.8,0 Z m -47.9,431.9 c 0,44.2 -35.8,80 -80,80 H 96 c -53,0 -96,-43 -96,-96 0,-47.6 34.6,-87 80,-94.6 V 320 c 0,-53 43,-96 96,-96 34.9,0 65.4,18.6 82.2,46.4 13,-9.1 28.8,-14.4 45.8,-14.4 44.2,0 80,35.8 80,80 0,5.9 -0.6,11.7 -1.9,17.2 37.4,6.7 65.8,39.4 65.8,78.7 z"
     id="path1"
     style="fill:#ffffff;fill-opacity:1" />
</svg>
