<?xml version="1.0" encoding="UTF-8" standalone="no"?>
<svg
   height="16"
   width="16"
   viewBox="0 0 512 512"
   version="1.1"
   id="svg1"
   xmlns="http://www.w3.org/2000/svg"
   xmlns:svg="http://www.w3.org/2000/svg">
  <defs
     id="defs1" />
  <!--!Font Awesome Free 6.5.1 by @fontawesome - https://fontawesome.com License - https://fontawesome.com/license/free Copyright 2024 Fonticons, Inc.-->
  <path
     opacity="1"
     fill="#1E3050"
     d="m 502.6,278.6 c 12.5,-12.5 12.5,-32.8 0,-45.3 l -128,-128 c -12.5,-12.5 -32.8,-12.5 -45.3,0 -12.5,12.5 -12.5,32.8 0,45.3 L 402.7,224 H 192 c -17.7,0 -32,14.3 -32,32 0,17.7 14.3,32 32,32 h 210.7 l -73.4,73.4 c -12.5,12.5 -12.5,32.8 0,45.3 12.5,12.5 32.8,12.5 45.3,0 l 128,-128 z M 160,96 c 17.7,0 32,-14.3 32,-32 0,-17.7 -14.3,-32 -32,-32 H 96 C 43,32 0,75 0,128 v 256 c 0,53 43,96 96,96 h 64 c 17.7,0 32,-14.3 32,-32 0,-17.7 -14.3,-32 -32,-32 H 96 C 78.3,416 64,401.7 64,384 V 128 C 64,110.3 78.3,96 96,96 Z"
     id="path1"
     style="fill:#ffffff;fill-opacity:1" />
</svg>
