<?xml version="1.0" encoding="UTF-8" standalone="no"?>
<svg
   height="16"
   width="16"
   viewBox="0 0 512 512"
   version="1.1"
   id="svg1"
   xmlns="http://www.w3.org/2000/svg"
   xmlns:svg="http://www.w3.org/2000/svg">
  <defs
     id="defs1" />
  <!--!Font Awesome Free 6.5.1 by @fontawesome - https://fontawesome.com License - https://fontawesome.com/license/free Copyright 2024 Fonticons, Inc.-->
  <path
     opacity="1"
     fill="#1E3050"
     d="m 142.9,142.9 c 62.2,-62.2 162.7,-62.5 225.3,-1 L 327,183 c -6.9,6.9 -8.9,17.2 -5.2,26.2 3.7,9 12.5,14.8 22.2,14.8 h 119.5 c 0,0 0,0 0,0 h 8.5 c 13.3,0 24,-10.7 24,-24 V 72 c 0,-9.7 -5.8,-18.5 -14.8,-22.2 -9,-3.7 -19.3,-1.7 -26.2,5.2 l -41.6,41.6 c -87.6,-86.5 -228.7,-86.2 -315.8,1 -24.4,24.4 -42,53.1 -52.8,83.8 -5.9,16.7 2.9,34.9 19.5,40.8 16.6,5.9 34.9,-2.9 40.8,-19.5 7.7,-21.8 20.2,-42.3 37.8,-59.8 z M 16,312 v 7.6 0.7 119.7 c 0,9.7 5.8,18.5 14.8,22.2 9,3.7 19.3,1.7 26.2,-5.2 l 41.6,-41.6 c 87.6,86.5 228.7,86.2 315.8,-1 24.4,-24.4 42.1,-53.1 52.9,-83.7 5.9,-16.7 -2.9,-34.9 -19.5,-40.8 -16.6,-5.9 -34.9,2.9 -40.8,19.5 -7.7,21.8 -20.2,42.3 -37.8,59.8 -62.2,62.2 -162.7,62.5 -225.3,1 L 185,329 c 6.9,-6.9 8.9,-17.2 5.2,-26.2 C 186.5,293.8 177.7,288 168,288 H 48.4 47.7 40 c -13.3,0 -24,10.7 -24,24 z"
     id="path1"
     style="fill:#ffffff;fill-opacity:1" />
</svg>
