<?xml version="1.0" encoding="UTF-8" standalone="no"?>
<svg
   height="16"
   width="16"
   viewBox="0 0 512 512"
   version="1.1"
   id="svg1"
   xmlns="http://www.w3.org/2000/svg"
   xmlns:svg="http://www.w3.org/2000/svg">
  <defs
     id="defs1" />
  <!--!Font Awesome Free 6.5.1 by @fontawesome - https://fontawesome.com License - https://fontawesome.com/license/free Copyright 2024 Fonticons, Inc.-->
  <path
     opacity="1"
     fill="#1E3050"
     d="M 288,32 C 288,14.3 273.7,0 256,0 238.3,0 224,14.3 224,32 v 224 c 0,17.7 14.3,32 32,32 17.7,0 32,-14.3 32,-32 z M 143.5,120.6 C 157.1,109.3 158.9,89.1 147.6,75.5 136.3,61.9 116.1,60.1 102.5,71.4 49.7,115.4 16,181.8 16,256 16,388.5 123.5,496 256,496 388.5,496 496,388.5 496,256 496,181.8 462.2,115.4 409.4,71.4 395.8,60.1 375.6,62 364.3,75.5 c -11.3,13.5 -9.4,33.8 4.1,45.1 38.9,32.3 63.5,81 63.5,135.4 0,97.2 -78.8,176 -176,176 -97.2,0 -176,-78.8 -176,-176 0,-54.4 24.7,-103.1 63.5,-135.4 z"
     id="path1"
     style="fill:#ffffff;fill-opacity:1" />
</svg>
