<?xml version="1.0" encoding="UTF-8" standalone="no"?>
<svg
   height="16"
   width="20"
   viewBox="0 0 640 512"
   version="1.1"
   id="svg1"
   xmlns="http://www.w3.org/2000/svg"
   xmlns:svg="http://www.w3.org/2000/svg">
  <defs
     id="defs1" />
  <!--!Font Awesome Free 6.5.1 by @fontawesome - https://fontawesome.com License - https://fontawesome.com/license/free Copyright 2024 Fonticons, Inc.-->
  <path
     opacity="1"
     fill="#1E3050"
     d="m 32,32 c 17.7,0 32,14.3 32,32 V 320 H 288 V 160 c 0,-17.7 14.3,-32 32,-32 h 224 c 53,0 96,43 96,96 v 224 c 0,17.7 -14.3,32 -32,32 -17.7,0 -32,-14.3 -32,-32 V 416 H 352 320 64 v 32 C 64,465.7 49.7,480 32,480 14.3,480 0,465.7 0,448 V 64 C 0,46.3 14.3,32 32,32 Z m 144,96 a 80,80 0 1 1 0,160 80,80 0 1 1 0,-160 z"
     id="path1"
     style="fill:#ffffff;fill-opacity:1" />
</svg>
